<svg width="18" height="16" viewBox="0 0 18 16" fill="none" xmlns="http://www.w3.org/2000/svg">
<path d="M14.1979 9.72698C15.9273 9.72698 17.3331 11.1147 17.3331 12.8218C17.3331 14.5279 15.9273 15.9166 14.1979 15.9166C12.4685 15.9166 11.0626 14.5279 11.0626 12.8218C11.0626 11.1147 12.4685 9.72698 14.1979 9.72698ZM14.1979 11.1786C13.2793 11.1786 12.5332 11.915 12.5332 12.8218C12.5332 13.7276 13.2793 14.465 14.1979 14.465C15.1165 14.465 15.8626 13.7276 15.8626 12.8218C15.8626 11.915 15.1165 11.1786 14.1979 11.1786ZM7.43104 12.0957C7.83692 12.0957 8.16632 12.4209 8.16632 12.8215C8.16632 13.2221 7.83692 13.5473 7.43104 13.5473H1.40272C0.99684 13.5473 0.667434 13.2221 0.667434 12.8215C0.667434 12.4209 0.99684 12.0957 1.40272 12.0957H7.43104ZM3.80199 0.083252C5.53137 0.083252 6.93723 1.47195 6.93723 3.17805C6.93723 4.88416 5.53137 6.27286 3.80199 6.27286C2.07359 6.27286 0.666748 4.88416 0.666748 3.17805C0.666748 1.47195 2.07359 0.083252 3.80199 0.083252ZM3.80199 1.53485C2.88436 1.53485 2.13731 2.27226 2.13731 3.17805C2.13731 4.08385 2.88436 4.82126 3.80199 4.82126C4.7206 4.82126 5.46666 4.08385 5.46666 3.17805C5.46666 2.27226 4.7206 1.53485 3.80199 1.53485ZM16.5981 2.45245C17.004 2.45245 17.3334 2.77761 17.3334 3.17825C17.3334 3.57889 17.004 3.90405 16.5981 3.90405H10.5688C10.163 3.90405 9.83355 3.57889 9.83355 3.17825C9.83355 2.77761 10.163 2.45245 10.5688 2.45245H16.5981Z" fill="white"/>
</svg>
