<svg width="93" height="105" viewBox="0 0 93 105" fill="none" xmlns="http://www.w3.org/2000/svg">
<path d="M0 24C0 17.3726 5.37258 12 12 12H92V92H12C5.37259 92 0 86.6274 0 80V24Z" fill="#1F1D2B"/>
<path d="M88.5 8C92.5 4 92 0 92 0V12H80C80 12 84.5 12 88.5 8Z" fill="#1F1D2B"/>
<path d="M88.01 95.51C84.01 91.51 80.01 92.01 80.01 92.01H92.01V104.01C92.01 104.01 92.01 99.51 88.01 95.51Z" fill="#1F1D2B"/>
<rect x="12" y="25" width="56" height="56" rx="8" fill="#1F1D2B"/>
<path d="M37.7302 43.7882C39.0002 42.7792 40.7802 42.7392 42.0892 43.6682L42.2502 43.7882L48.3392 48.6592C49.0092 49.1782 49.4202 49.9492 49.4902 50.7882L49.5002 50.9892V59.0982C49.5002 61.1882 47.8492 62.8882 45.7802 62.9982H43.7902C42.8392 62.9792 42.0702 62.2392 42.0002 61.3092L41.9902 61.1682V58.3092C41.9902 57.9982 41.7592 57.7392 41.4502 57.6882L41.3602 57.6782H38.6892C38.3702 57.6882 38.1102 57.9182 38.0702 58.2182L38.0602 58.3092V61.1592C38.0602 61.2182 38.0492 61.2882 38.0402 61.3382L38.0302 61.3592L38.0192 61.4282C37.9002 62.2792 37.2002 62.9282 36.3302 62.9892L36.2002 62.9982H34.4102C32.3202 62.9982 30.6102 61.3592 30.5002 59.2982V50.9892C30.5092 50.1382 30.8802 49.3482 31.5002 48.7982L37.7302 43.7882ZM41.3802 44.8782C40.6202 44.2682 39.5402 44.2392 38.7402 44.7682L38.5892 44.8782L32.5092 49.7792C32.1602 50.0382 31.9502 50.4282 31.9002 50.8382L31.8892 50.9982V59.0982C31.8892 60.4282 32.9292 61.5182 34.2502 61.5982H36.2002C36.4202 61.5982 36.6102 61.4492 36.6392 61.2392L36.6602 61.0592L36.6702 61.0082V58.3092C36.6702 57.2392 37.4902 56.3692 38.5402 56.2882H41.3602C42.4292 56.2882 43.2992 57.1092 43.3802 58.1592V61.1682C43.3802 61.3782 43.5302 61.5592 43.7302 61.5982H45.5892C46.9292 61.5982 48.0192 60.5692 48.0992 59.2582L48.1102 59.0982V50.9982C48.0992 50.5692 47.9202 50.1682 47.6102 49.8692L47.4802 49.7582L41.3802 44.8782Z" fill="#FFCA40"/>
</svg>
