<svg width="105" height="113" viewBox="0 0 105 113" fill="none" xmlns="http://www.w3.org/2000/svg">
<path d="M12 24C12 17.3726 17.3726 12 24 12H104V92H24C17.3726 92 12 86.6274 12 80V24Z" fill="#252836"/>
<path d="M100.5 8C104.5 4 104 0 104 0V12H92C92 12 96.5 12 100.5 8Z" fill="#252836"/>
<path d="M100.01 95.5098C96.01 91.5098 92.01 92.0098 92.01 92.0098H104.01V104.01C104.01 104.01 104.01 99.5098 100.01 95.5098Z" fill="#252836"/>
<g filter="url(#filter0_d_9_7174)">
<rect x="24" y="25" width="56" height="56" rx="8" fill="#FFCA40"/>
<path d="M52.6161 43C53.3251 42.9997 54.0041 43.2806 54.4983 43.7787C54.9925 44.2768 55.2599 44.9497 55.2383 45.5777L55.2468 45.7254C55.2641 45.8708 55.3124 46.0112 55.3908 46.1405C55.5435 46.3957 55.7935 46.5808 56.0857 46.6551C56.3779 46.7295 56.6882 46.6869 56.9821 46.5184L57.146 46.4355C58.3759 45.869 59.8511 46.3192 60.5333 47.4793L61.1465 48.5217C61.1627 48.5492 61.1769 48.5776 61.1892 48.6067L61.2461 48.7184C61.7945 49.8652 61.4043 51.2293 60.3624 51.9223L60.1051 52.0807C59.9706 52.1726 59.8585 52.2926 59.7742 52.4368C59.6218 52.6929 59.58 52.998 59.658 53.2844C59.736 53.5708 59.9272 53.8149 60.2174 53.9793L60.3843 54.0841C60.8887 54.4297 61.253 54.9391 61.4119 55.523C61.5912 56.1817 61.495 56.8833 61.1399 57.4804L60.4803 58.557L60.3808 58.7089C59.6058 59.8008 58.1011 60.1344 56.9527 59.485L56.8166 59.4163C56.6746 59.3541 56.5214 59.3199 56.382 59.316C56.0786 59.3146 55.7872 59.432 55.5727 59.6422C55.3582 59.8524 55.2383 60.1379 55.2391 60.4698L55.231 60.6414C55.12 61.9703 53.9845 63 52.6164 63H51.3811C49.9322 63 48.7577 61.8493 48.7591 60.4753L48.7506 60.3277C48.7334 60.1822 48.685 60.0418 48.6027 59.9057C48.4534 59.65 48.2059 59.4633 47.9154 59.3871C47.6248 59.3109 47.3153 59.3516 47.0157 59.5213L46.8376 59.6084C46.2746 59.8565 45.6395 59.9023 45.0445 59.7366C44.3731 59.5497 43.8054 59.1083 43.4741 58.5224L42.8368 57.4442L42.752 57.2844C42.1716 56.0841 42.6265 54.6412 43.7811 53.9875L43.8865 53.9228C44.1949 53.7137 44.3799 53.3688 44.3799 53C44.3799 52.599 44.1615 52.2284 43.7795 52.0115L43.6245 51.9141C42.51 51.1548 42.1695 49.6805 42.8599 48.507L43.5092 47.4617C44.2313 46.2338 45.8316 45.8102 47.0624 46.5017L47.1956 46.5713C47.3314 46.6324 47.479 46.6648 47.621 46.6663C48.2474 46.6663 48.7578 46.1735 48.7672 45.5418L48.7758 45.3478C48.827 44.7472 49.0931 44.1827 49.528 43.7546C50.0186 43.2716 50.6855 43 51.3811 43H52.6161ZM52.6164 44.4477H51.3811C51.0786 44.4477 50.7887 44.5658 50.5753 44.7758C50.3863 44.962 50.2706 45.2074 50.2503 45.4366L50.2368 45.7415C50.1334 47.0709 48.9997 48.1142 47.6133 48.114C47.2559 48.1103 46.9036 48.0329 46.5443 47.8703L46.3519 47.7709C45.8038 47.4632 45.1049 47.6482 44.7806 48.1992L44.1313 49.2446C43.8338 49.7504 43.9826 50.3947 44.4432 50.7092L44.704 50.871C45.422 51.3467 45.8575 52.1429 45.8575 53C45.8575 53.8446 45.4341 54.634 44.7022 55.1296L44.5464 55.2256C44.0335 55.5163 43.8356 56.144 44.074 56.6383L44.1303 56.7449L44.7595 57.8084C44.9073 58.0696 45.1552 58.2624 45.4484 58.344C45.7083 58.4164 45.9857 58.3964 46.2021 58.3018L46.3108 58.2497C46.911 57.9066 47.6261 57.8126 48.2974 57.9886C48.9686 58.1645 49.5403 58.5959 49.8794 59.1768C50.0618 59.478 50.1772 59.8132 50.2219 60.1985L50.2421 60.552C50.3043 61.1145 50.7905 61.5523 51.3811 61.5523H52.6164C53.2137 61.5523 53.7099 61.1023 53.7565 60.5511L53.7621 60.4421C53.7588 59.7585 54.0345 59.1019 54.5279 58.6185C55.0212 58.1351 55.6914 57.865 56.4053 57.8686C56.7556 57.8778 57.1004 57.9547 57.4528 58.11L57.7687 58.2682C58.2647 58.4814 58.8529 58.3258 59.1511 57.9067L59.2236 57.7957L59.868 56.7436C60.0203 56.4875 60.0621 56.1824 59.9841 55.896C59.915 55.6422 59.7566 55.4207 59.5645 55.2882L59.2922 55.1195C58.7716 54.7748 58.3932 54.2563 58.2302 53.6574C58.0509 52.9987 58.1471 52.2971 58.4946 51.7126C58.6849 51.3872 58.9464 51.1073 59.2873 50.8753L59.448 50.7761C59.9601 50.4827 60.1578 49.855 59.9212 49.3588L59.8505 49.2253L59.8378 49.1973L59.253 48.2021C58.9764 47.7318 58.4008 47.5285 57.9125 47.6891L57.8015 47.7327L57.6983 47.7842C57.1001 48.1294 56.3863 48.2274 55.7143 48.0564C55.0423 47.8855 54.4673 47.4596 54.1181 46.8762C53.9357 46.575 53.8203 46.2398 53.7756 45.8545L53.7624 45.6025C53.7713 45.2992 53.6546 45.0054 53.4387 44.7878C53.2229 44.5703 52.9264 44.4477 52.6164 44.4477ZM52.0032 49.7318C53.8455 49.7318 55.339 51.195 55.339 53C55.339 54.805 53.8455 56.2682 52.0032 56.2682C50.161 56.2682 48.6675 54.805 48.6675 53C48.6675 51.195 50.161 49.7318 52.0032 49.7318ZM52.0032 51.1796C50.977 51.1796 50.1452 51.9946 50.1452 53C50.1452 54.0054 50.977 54.8204 52.0032 54.8204C53.0294 54.8204 53.8613 54.0054 53.8613 53C53.8613 51.9946 53.0294 51.1796 52.0032 51.1796Z" fill="#FAFAFA"/>
</g>
<defs>
<filter id="filter0_d_9_7174" x="0" y="9" width="104" height="104" filterUnits="userSpaceOnUse" color-interpolation-filters="sRGB">
<feFlood flood-opacity="0" result="BackgroundImageFix"/>
<feColorMatrix in="SourceAlpha" type="matrix" values="0 0 0 0 0 0 0 0 0 0 0 0 0 0 0 0 0 0 127 0" result="hardAlpha"/>
<feOffset dy="8"/>
<feGaussianBlur stdDeviation="12"/>
<feColorMatrix type="matrix" values="0 0 0 0 1 0 0 0 0 0.792157 0 0 0 0 0.25098 0 0 0 0.32 0"/>
<feBlend mode="normal" in2="BackgroundImageFix" result="effect1_dropShadow_9_7174"/>
<feBlend mode="normal" in="SourceGraphic" in2="effect1_dropShadow_9_7174" result="shape"/>
</filter>
</defs>
</svg>
